# Blender v2.79 (sub 0) OBJ File: ''
# www.blender.org
mtllib plane.mtl
o Cube_Cube.002
v -6.139722 0.000374 5.770868
v -6.139946 0.195731 5.770766
v -6.134626 -0.005670 -5.776282
v -6.134851 0.189688 -5.776384
v 6.134616 0.014474 5.776277
v 6.134392 0.209832 5.776175
v 6.139711 0.008431 -5.770873
v 6.139487 0.203788 -5.770975
vn -1.0000 -0.0011 -0.0004
vn 0.0004 -0.0005 -1.0000
vn 1.0000 0.0011 0.0004
vn -0.0004 0.0005 1.0000
vn 0.0011 -1.0000 0.0005
vn -0.0011 1.0000 -0.0005
usemtl None
s off
f 1//1 2//1 4//1 3//1
f 3//2 4//2 8//2 7//2
f 7//3 8//3 6//3 5//3
f 5//4 6//4 2//4 1//4
f 3//5 7//5 5//5 1//5
f 8//6 4//6 2//6 6//6
