# Blender v2.79 (sub 0) OBJ File: ''
# www.blender.org
mtllib direk.mtl.mtl
o gatedirek
v -0.500000 0.400000 -2.500000
v -0.500000 -0.400000 -2.500000
v -0.500000 0.400000 2.500000
v -0.500000 -0.400000 2.500000
v -0.493969 0.434202 2.500000
v -0.498481 0.417365 2.500000
v -0.400000 0.500000 2.500000
v -0.400000 -0.500000 2.500000
v 0.500000 -0.400000 2.500000
v 0.500000 0.400000 2.500000
v 0.400000 0.500000 2.500000
v 0.400000 -0.500000 2.500000
v 0.417365 -0.498481 2.500000
v 0.434202 -0.493969 2.500000
v -0.486603 0.450000 2.500000
v -0.417365 0.498481 2.500000
v -0.434202 0.493969 2.500000
v -0.498481 -0.417365 2.500000
v -0.493969 -0.434202 2.500000
v -0.486603 -0.450000 2.500000
v -0.476604 -0.464279 2.500000
v -0.417365 -0.498481 2.500000
v 0.450000 -0.486603 2.500000
v 0.464279 -0.476604 2.500000
v 0.476604 -0.464279 2.500000
v 0.498481 0.417365 2.500000
v 0.493969 0.434202 2.500000
v 0.417365 0.498481 2.500000
v 0.434202 0.493969 2.500000
v -0.450000 0.486603 2.500000
v -0.464279 0.476604 2.500000
v -0.476604 0.464279 2.500000
v 0.486603 -0.450000 2.500000
v 0.493969 -0.434202 2.500000
v 0.498481 -0.417365 2.500000
v 0.486603 0.450000 2.500000
v 0.476604 0.464279 2.500000
v 0.464279 0.476604 2.500000
v 0.450000 0.486603 2.500000
v -0.464279 -0.476604 2.500000
v -0.450000 -0.486603 2.500000
v -0.434202 -0.493969 2.500000
v 0.500000 -0.400000 -2.500000
v 0.500000 0.400000 -2.500000
v -0.493969 -0.434202 -2.500000
v -0.498481 -0.417365 -2.500000
v -0.400000 -0.500000 -2.500000
v -0.400000 0.500000 -2.500000
v -0.498481 0.417365 -2.500000
v 0.400000 0.500000 -2.500000
v 0.434202 -0.493969 -2.500000
v 0.417365 -0.498481 -2.500000
v 0.400000 -0.500000 -2.500000
v -0.417365 -0.498481 -2.500000
v -0.476604 -0.464279 -2.500000
v -0.486603 -0.450000 -2.500000
v -0.493969 0.434202 -2.500000
v -0.486603 0.450000 -2.500000
v -0.417365 0.498481 -2.500000
v 0.493969 0.434202 -2.500000
v 0.498481 0.417365 -2.500000
v -0.476604 0.464279 -2.500000
v -0.464279 0.476604 -2.500000
v 0.417365 0.498481 -2.500000
v 0.434202 0.493969 -2.500000
v 0.450000 0.486603 -2.500000
v 0.498481 -0.417365 -2.500000
v 0.493969 -0.434202 -2.500000
v 0.486603 -0.450000 -2.500000
v 0.476604 -0.464279 -2.500000
v -0.434202 -0.493969 -2.500000
v -0.450000 -0.486603 -2.500000
v -0.464279 -0.476604 -2.500000
v -0.450000 0.486603 -2.500000
v -0.434202 0.493969 -2.500000
v 0.464279 -0.476604 -2.500000
v 0.450000 -0.486603 -2.500000
v 0.464279 0.476604 -2.500000
v 0.476604 0.464279 -2.500000
v 0.486603 0.450000 -2.500000
vn -1.0000 0.0000 0.0000
vn 0.0000 0.0000 1.0000
vn 1.0000 0.0000 0.0000
vn 0.0000 0.0000 -1.0000
vn 0.0000 1.0000 0.0000
vn 0.0000 -1.0000 0.0000
vn -0.0872 0.9962 0.0000
vn -0.2588 0.9659 0.0000
vn -0.4226 0.9063 0.0000
vn -0.5736 0.8192 0.0000
vn -0.7071 0.7071 0.0000
vn -0.8191 0.5736 0.0000
vn -0.8192 0.5736 0.0000
vn -0.9063 0.4226 0.0000
vn -0.9659 0.2588 0.0000
vn -0.9962 0.0872 0.0000
vn -0.0872 -0.9962 0.0000
vn -0.2588 -0.9659 0.0000
vn -0.4226 -0.9063 0.0000
vn -0.5736 -0.8192 0.0000
vn -0.7071 -0.7071 0.0000
vn -0.8191 -0.5736 0.0000
vn -0.8192 -0.5736 0.0000
vn -0.9063 -0.4226 0.0000
vn -0.9659 -0.2588 0.0000
vn -0.9962 -0.0872 0.0000
vn 0.0872 -0.9962 0.0000
vn 0.2588 -0.9659 0.0000
vn 0.4226 -0.9063 0.0000
vn 0.5736 -0.8192 0.0000
vn 0.7071 -0.7071 0.0000
vn 0.8191 -0.5736 0.0000
vn 0.8192 -0.5736 0.0000
vn 0.9063 -0.4226 0.0000
vn 0.9659 -0.2588 0.0000
vn 0.9962 -0.0872 0.0000
vn 0.0872 0.9962 0.0000
vn 0.2588 0.9659 0.0000
vn 0.4226 0.9063 0.0000
vn 0.5736 0.8192 0.0000
vn 0.7071 0.7071 0.0000
vn 0.8191 0.5736 0.0000
vn 0.8192 0.5736 0.0000
vn 0.9063 0.4226 0.0000
vn 0.9659 0.2588 0.0000
vn 0.9962 0.0872 0.0000
usemtl None
s off
f 1//1 2//1 3//1
f 3//1 2//1 4//1
f 5//2 6//2 7//2
f 7//2 6//2 3//2
f 7//2 3//2 8//2
f 8//2 9//2 7//2
f 7//2 9//2 10//2
f 7//2 10//2 11//2
f 8//2 12//2 9//2
f 9//2 12//2 13//2
f 9//2 13//2 14//2
f 5//2 7//2 15//2
f 15//2 7//2 16//2
f 15//2 16//2 17//2
f 3//2 4//2 8//2
f 8//2 4//2 18//2
f 8//2 18//2 19//2
f 19//2 20//2 8//2
f 8//2 20//2 21//2
f 8//2 21//2 22//2
f 14//2 23//2 9//2
f 9//2 23//2 24//2
f 9//2 24//2 25//2
f 10//2 26//2 11//2
f 11//2 26//2 27//2
f 11//2 27//2 28//2
f 28//2 27//2 29//2
f 17//2 30//2 15//2
f 15//2 30//2 31//2
f 15//2 31//2 32//2
f 25//2 33//2 9//2
f 9//2 33//2 34//2
f 9//2 34//2 35//2
f 27//2 36//2 37//2
f 37//2 38//2 27//2
f 27//2 38//2 39//2
f 27//2 39//2 29//2
f 40//2 41//2 21//2
f 21//2 41//2 42//2
f 21//2 42//2 22//2
f 43//3 44//3 9//3
f 9//3 44//3 10//3
f 45//4 46//4 47//4
f 2//4 1//4 48//4
f 48//4 1//4 49//4
f 46//4 2//4 47//4
f 47//4 2//4 48//4
f 47//4 48//4 43//4
f 43//4 48//4 50//4
f 51//4 52//4 43//4
f 43//4 52//4 53//4
f 43//4 53//4 47//4
f 54//4 55//4 47//4
f 47//4 55//4 56//4
f 47//4 56//4 45//4
f 49//4 57//4 48//4
f 48//4 57//4 58//4
f 48//4 58//4 59//4
f 60//4 61//4 50//4
f 50//4 61//4 44//4
f 50//4 44//4 43//4
f 58//4 62//4 63//4
f 50//4 64//4 60//4
f 60//4 64//4 65//4
f 60//4 65//4 66//4
f 67//4 68//4 43//4
f 43//4 68//4 69//4
f 43//4 69//4 70//4
f 54//4 71//4 55//4
f 55//4 71//4 72//4
f 55//4 72//4 73//4
f 63//4 74//4 58//4
f 58//4 74//4 75//4
f 58//4 75//4 59//4
f 70//4 76//4 43//4
f 43//4 76//4 77//4
f 43//4 77//4 51//4
f 66//4 78//4 60//4
f 60//4 78//4 79//4
f 60//4 79//4 80//4
f 7//5 11//5 48//5
f 48//5 11//5 50//5
f 47//6 53//6 8//6
f 8//6 53//6 12//6
f 7//7 48//7 59//7
f 7//7 59//7 16//7
f 16//8 59//8 75//8
f 16//8 75//8 17//8
f 17//9 75//9 74//9
f 17//9 74//9 30//9
f 30//10 74//10 63//10
f 30//10 63//10 31//10
f 31//11 63//11 62//11
f 31//11 62//11 32//11
f 32//12 62//12 58//12
f 32//13 58//13 15//13
f 15//14 58//14 57//14
f 15//14 57//14 5//14
f 5//15 57//15 49//15
f 5//15 49//15 6//15
f 6//16 49//16 1//16
f 6//16 1//16 3//16
f 47//17 8//17 22//17
f 47//17 22//17 54//17
f 54//18 22//18 42//18
f 54//18 42//18 71//18
f 71//19 42//19 41//19
f 71//19 41//19 72//19
f 72//20 41//20 40//20
f 72//20 40//20 73//20
f 73//21 40//21 21//21
f 73//21 21//21 55//21
f 55//22 21//22 20//22
f 55//23 20//23 56//23
f 56//24 20//24 19//24
f 56//24 19//24 45//24
f 45//25 19//25 18//25
f 45//25 18//25 46//25
f 46//26 18//26 4//26
f 46//26 4//26 2//26
f 12//27 53//27 52//27
f 12//27 52//27 13//27
f 13//28 52//28 51//28
f 13//28 51//28 14//28
f 14//29 51//29 77//29
f 14//29 77//29 23//29
f 23//30 77//30 76//30
f 23//30 76//30 24//30
f 24//31 76//31 70//31
f 24//31 70//31 25//31
f 25//32 70//32 69//32
f 25//33 69//33 33//33
f 33//34 69//34 68//34
f 33//34 68//34 34//34
f 34//35 68//35 67//35
f 34//35 67//35 35//35
f 35//36 67//36 43//36
f 35//36 43//36 9//36
f 50//37 11//37 28//37
f 50//37 28//37 64//37
f 64//38 28//38 29//38
f 64//38 29//38 65//38
f 65//39 29//39 39//39
f 65//39 39//39 66//39
f 66//40 39//40 38//40
f 66//40 38//40 78//40
f 78//41 38//41 37//41
f 78//41 37//41 79//41
f 79//42 37//42 36//42
f 79//43 36//43 80//43
f 80//44 36//44 27//44
f 80//44 27//44 60//44
f 60//45 27//45 26//45
f 60//45 26//45 61//45
f 61//46 26//46 10//46
f 61//46 10//46 44//46
