# Blender v2.79 (sub 0) OBJ File: ''
# www.blender.org
mtllib evren.mtl
o Evren
v -52.500000 70.000000 67.500000
v -52.500000 70.000000 -67.500000
v -52.500000 -0.000003 67.500000
v -52.500000 0.000003 -67.500000
v 52.500000 70.000000 67.500000
v 52.500000 -0.000003 67.500000
v 52.500000 70.000000 -67.500000
v 52.500000 0.000003 -67.500000
v 50.500000 70.000000 -65.500000
v -50.500000 70.000000 -65.500000
v -50.500000 70.000000 65.500000
v 50.500000 70.000000 65.500000
v -50.500000 2.000003 -65.500000
v -50.500000 1.999997 65.500000
v 50.500000 1.999997 65.500000
v 50.500000 2.000003 -65.500000
v 48.500000 1.999997 60.500000
v 48.500000 1.999997 63.500004
v 45.500000 1.999997 63.500004
v 45.500000 1.999997 60.500000
v -48.500000 2.000003 -60.500000
v -48.500000 2.000003 -63.500004
v -45.500000 2.000003 -63.500004
v -45.500000 2.000003 -60.500000
v 48.500000 0.999997 60.500000
v 48.500000 0.999997 63.500004
v 45.500000 0.999997 63.500004
v 45.500000 0.999997 60.500000
v -48.500000 1.000003 -60.500000
v -48.500000 1.000003 -63.500004
v -45.500000 1.000003 -63.500004
v -45.500000 1.000003 -60.500000
vn -1.0000 0.0000 0.0000
vn 0.0000 0.0000 1.0000
vn 1.0000 0.0000 0.0000
vn 0.0000 0.0000 -1.0000
vn 0.0000 1.0000 0.0000
vn 0.0000 -1.0000 -0.0000
usemtl None
s off
f 1//1 2//1 3//1
f 3//1 2//1 4//1
f 5//2 1//2 6//2
f 6//2 1//2 3//2
f 7//3 5//3 8//3
f 8//3 5//3 6//3
f 2//4 7//4 4//4
f 4//4 7//4 8//4
f 9//5 7//5 10//5
f 10//5 7//5 2//5
f 10//5 2//5 11//5
f 11//5 2//5 1//5
f 11//5 1//5 12//5
f 12//5 1//5 5//5
f 12//5 5//5 9//5
f 9//5 5//5 7//5
f 8//6 6//6 4//6
f 4//6 6//6 3//6
f 10//3 11//3 13//3
f 13//3 11//3 14//3
f 11//4 12//4 14//4
f 14//4 12//4 15//4
f 12//1 9//1 15//1
f 15//1 9//1 16//1
f 9//2 10//2 16//2
f 16//2 10//2 13//2
f 17//5 18//5 15//5
f 15//5 18//5 19//5
f 15//5 19//5 14//5
f 14//5 19//5 20//5
f 21//5 22//5 13//5
f 13//5 22//5 23//5
f 13//5 23//5 16//5
f 16//5 23//5 24//5
f 13//5 14//5 21//5
f 21//5 14//5 20//5
f 21//5 20//5 24//5
f 24//5 20//5 17//5
f 24//5 17//5 16//5
f 16//5 17//5 15//5
f 25//1 26//1 17//1
f 17//1 26//1 18//1
f 26//4 27//4 18//4
f 18//4 27//4 19//4
f 27//3 28//3 19//3
f 19//3 28//3 20//3
f 28//2 25//2 20//2
f 20//2 25//2 17//2
f 28//5 27//5 25//5
f 25//5 27//5 26//5
f 29//3 30//3 21//3
f 21//3 30//3 22//3
f 30//2 31//2 22//2
f 22//2 31//2 23//2
f 31//1 32//1 23//1
f 23//1 32//1 24//1
f 32//4 29//4 24//4
f 24//4 29//4 21//4
f 32//5 31//5 29//5
f 29//5 31//5 30//5
f 10//5 11//5 9//5
f 9//5 11//5 12//5
